# xmcd
#
# Track frame offsets: 
#        150
#        20638
#        53070
#        86115
#        102629
#        130789
#        168182
#        209168
#        235532
#        264485
#        280034
#        291579
#
# Disc length: 4267 seconds
#
# Revision: 0
# Processed by: cddbd v1.5.2PL0 Copyright (c) Steve Scherf et al.
# Submitted via: ExactAudioCopy v0.99pb5
#
DISCID=b210a90c
DTITLE=Tom Waits - Live at Congresgebouw Den Haag [CD1)
DYEAR=1999
DGENRE=Blues
TTITLE0=Earth Died Screaming
TTITLE1=Jockey Full Of Bourbon
TTITLE2=Jesus Gonna Be Here
TTITLE3=Get Behind The Mule
TTITLE4=Walk Away
TTITLE5=Chocolate Jesus
TTITLE6=Hold On
TTITLE7=Eyeball Kid
TTITLE8=What's He Building
TTITLE9=Tango Till They're Sore
TTITLE10=The Fall Of Troy
TTITLE11=Cemetery Polka
EXTD=
EXTT0=
EXTT1=
EXTT2=
EXTT3=
EXTT4=
EXTT5=
EXTT6=
EXTT7=
EXTT8=
EXTT9=
EXTT10=
EXTT11=
PLAYORDER=
